<?xml version="1.0" standalone="no"?>
<!DOCTYPE svg PUBLIC "-//W3C//DTD SVG 20010904//EN"
 "http://www.w3.org/TR/2001/REC-SVG-20010904/DTD/svg10.dtd">
<svg version="1.0" xmlns="http://www.w3.org/2000/svg"
 width="512.000000pt" height="512.000000pt" viewBox="0 0 512.000000 512.000000"
 preserveAspectRatio="xMidYMid meet">
<metadata>
Created by potrace 1.11, written by Peter Selinger 2001-2013
</metadata>
<g transform="translate(0.000000,512.000000) scale(0.100000,-0.100000)"
fill="#000000" stroke="none">
<path d="M4830 5104 c-579 -70 -1152 -246 -1600 -494 -136 -75 -328 -203 -450
-300 -103 -82 -311 -283 -402 -387 l-46 -53 -84 40 c-437 205 -860 15 -1120
-503 -89 -179 -150 -392 -164 -573 -9 -128 17 -174 100 -174 27 0 47 11 93 50
113 98 276 159 424 160 51 0 72 -5 90 -19 l24 -19 -19 -49 c-46 -120 -107
-299 -132 -389 -25 -94 -28 -156 -9 -205 4 -11 -16 -29 -81 -68 -167 -102
-265 -218 -347 -411 -60 -143 -123 -409 -143 -609 l-7 -70 37 -37 37 -37 67 7
c121 12 295 45 422 80 305 84 470 197 603 414 34 56 55 81 65 77 7 -3 37 -8
65 -11 61 -7 214 34 432 116 73 27 138 50 144 50 6 0 18 -11 27 -25 14 -22 16
-42 11 -118 -10 -154 -60 -277 -157 -390 -39 -46 -50 -66 -50 -93 0 -83 46
-109 174 -100 372 28 787 231 987 483 190 240 221 518 89 801 l-40 84 53 46
c188 163 392 394 533 602 335 494 570 1167 649 1860 18 163 19 191 3 225 -26
57 -74 64 -278 39z m76 -251 c-13 -105 -55 -358 -76 -448 -34 -149 -92 -365
-99 -365 -9 0 -696 689 -691 693 8 6 147 45 279 78 151 37 469 92 565 97 l28
2 -6 -57z m-663 -611 l418 -418 -41 -105 c-251 -632 -635 -1099 -1230 -1496
-169 -113 -477 -283 -512 -283 -17 0 -938 921 -938 938 0 37 171 344 290 522
341 508 724 852 1225 1100 133 66 346 159 365 160 3 0 193 -188 423 -418z
m-2206 -466 c28 -8 77 -25 108 -40 53 -24 56 -27 44 -45 -136 -189 -253 -375
-344 -546 -32 -60 -59 -111 -60 -113 -1 -1 -15 5 -32 13 -42 21 -193 29 -287
16 -67 -9 -192 -46 -260 -76 -17 -7 -18 -5 -12 29 4 20 19 72 33 114 105 317
305 562 522 638 78 28 205 32 288 10z m228 -1516 c225 -225 407 -411 405 -413
-10 -8 -182 -67 -285 -97 -68 -20 -118 -29 -134 -25 -32 8 -505 476 -522 517
-9 23 -8 40 5 91 24 90 109 337 115 337 4 0 190 -184 416 -410z m1472 -116
c82 -180 71 -363 -33 -520 -77 -117 -228 -241 -393 -324 -68 -34 -284 -110
-315 -110 -13 0 -16 4 -11 18 62 145 90 285 82 419 -3 54 -12 106 -21 124 -9
18 -15 33 -14 34 2 1 48 26 103 55 176 93 401 234 524 327 24 18 46 33 48 33
2 0 16 -25 30 -56z m-1900 -306 c90 -90 163 -169 163 -176 0 -53 -138 -239
-217 -293 -104 -72 -376 -164 -547 -184 l-59 -8 8 59 c20 171 112 443 184 547
54 79 238 216 291 217 8 0 88 -73 177 -162z"/>
<path d="M3533 4099 c-95 -12 -202 -66 -277 -141 -101 -101 -146 -211 -146
-354 0 -278 216 -494 494 -494 143 0 253 45 353 145 192 192 196 498 8 695
-111 116 -267 170 -432 149z m193 -219 c230 -98 238 -427 12 -539 -51 -26 -73
-31 -133 -31 -170 0 -295 125 -295 296 0 59 5 81 31 132 71 143 238 205 385
142z"/>
<path d="M2995 3128 c-31 -17 -165 -150 -181 -180 -48 -92 42 -182 134 -134
32 17 165 151 181 183 42 83 -53 176 -134 131z"/>
<path d="M2593 2712 c-69 -11 -98 -110 -46 -164 51 -54 151 -26 165 45 6 29
-8 82 -26 96 -19 16 -66 28 -93 23z"/>
<path d="M708 2262 c-164 -163 -168 -169 -168 -209 0 -63 34 -98 94 -98 l46 0
165 165 c178 178 191 199 161 258 -20 39 -44 52 -93 52 -35 0 -47 -10 -205
-168z"/>
<path d="M754 1723 c-11 -2 -185 -169 -387 -371 -306 -306 -367 -372 -367
-395 0 -81 78 -130 148 -93 15 8 183 171 374 363 372 374 376 379 343 443 -13
25 -73 65 -87 59 -2 -1 -12 -4 -24 -6z"/>
<path d="M2295 1010 c-11 -4 -94 -83 -184 -174 l-164 -165 6 -43 c8 -57 43
-88 100 -88 40 0 46 4 209 168 158 158 168 170 168 205 0 49 -13 73 -50 92
-32 17 -55 18 -85 5z"/>
<path d="M790 869 c-30 -12 -705 -683 -726 -721 -37 -71 11 -148 94 -148 21 0
94 68 393 366 248 248 369 375 372 393 7 38 -17 87 -52 105 -34 18 -46 19 -81
5z"/>
<path d="M1590 869 c-30 -12 -705 -683 -726 -721 -37 -71 11 -148 94 -148 21
0 94 68 393 366 248 248 369 375 372 393 7 38 -17 87 -52 105 -34 18 -46 19
-81 5z"/>
</g>
</svg>
