<svg version="1.0" xmlns="http://www.w3.org/2000/svg" width="682.667" height="682.667" viewBox="0 0 512 512"><path d="M483 1.6c-57.9 7-115.2 24.6-160 49.4-13.6 7.5-32.8 20.3-45 30-10.3 8.2-31.1 28.3-40.2 38.7l-4.6 5.3-8.4-4c-43.7-20.5-86-1.5-112 50.3-8.9 17.9-15 39.2-16.4 57.3-.9 12.8 1.7 17.4 10 17.4 2.7 0 4.7-1.1 9.3-5 11.3-9.8 27.6-15.9 42.4-16 5.1 0 7.2.5 9 1.9l2.4 1.9-1.9 4.9c-4.6 12-10.7 29.9-13.2 38.9-2.5 9.4-2.8 15.6-.9 20.5.4 1.1-1.6 2.9-8.1 6.8-16.7 10.2-26.5 21.8-34.7 41.1-6 14.3-12.3 40.9-14.3 60.9l-.7 7 3.7 3.7 3.7 3.7 6.7-.7c12.1-1.2 29.5-4.5 42.2-8 30.5-8.4 47-19.7 60.3-41.4 3.4-5.6 5.5-8.1 6.5-7.7.7.3 3.7.8 6.5 1.1 6.1.7 21.4-3.4 43.2-11.6 7.3-2.7 13.8-5 14.4-5 .6 0 1.8 1.1 2.7 2.5 1.4 2.2 1.6 4.2 1.1 11.8-1 15.4-6 27.7-15.7 39-3.9 4.6-5 6.6-5 9.3 0 8.3 4.6 10.9 17.4 10 37.2-2.8 78.7-23.1 98.7-48.3 19-24 22.1-51.8 8.9-80.1l-4-8.4 5.3-4.6c18.8-16.3 39.2-39.4 53.3-60.2 33.5-49.4 57-116.7 64.9-186 1.8-16.3 1.9-19.1.3-22.5-2.6-5.7-7.4-6.4-27.8-3.9zm7.6 25.1c-1.3 10.5-5.5 35.8-7.6 44.8-3.4 14.9-9.2 36.5-9.9 36.5-.9 0-69.6-68.9-69.1-69.3.8-.6 14.7-4.5 27.9-7.8 15.1-3.7 46.9-9.2 56.5-9.7l2.8-.2-.6 5.7zm-66.3 61.1l41.8 41.8-4.1 10.5c-25.1 63.2-63.5 109.9-123 149.6-16.9 11.3-47.7 28.3-51.2 28.3-1.7 0-93.8-92.1-93.8-93.8 0-3.7 17.1-34.4 29-52.2 34.1-50.8 72.4-85.2 122.5-110 13.3-6.6 34.6-15.9 36.5-16 .3 0 19.3 18.8 42.3 41.8zm-220.6 46.6c2.8.8 7.7 2.5 10.8 4 5.3 2.4 5.6 2.7 4.4 4.5-13.6 18.9-25.3 37.5-34.4 54.6-3.2 6-5.9 11.1-6 11.3-.1.1-1.5-.5-3.2-1.3-4.2-2.1-19.3-2.9-28.7-1.6-6.7.9-19.2 4.6-26 7.6-1.7.7-1.8.5-1.2-2.9.4-2 1.9-7.2 3.3-11.4 10.5-31.7 30.5-56.2 52.2-63.8 7.8-2.8 20.5-3.2 28.8-1zM226.5 286c22.5 22.5 40.7 41.1 40.5 41.3-1 .8-18.2 6.7-28.5 9.7-6.8 2-11.8 2.9-13.4 2.5-3.2-.8-50.5-47.6-52.2-51.7-.9-2.3-.8-4 .5-9.1 2.4-9 10.9-33.7 11.5-33.7.4 0 19 18.4 41.6 41zm147.2 11.6c8.2 18 7.1 36.3-3.3 52-7.7 11.7-22.8 24.1-39.3 32.4-6.8 3.4-28.4 11-31.5 11-1.3 0-1.6-.4-1.1-1.8 6.2-14.5 9-28.5 8.2-41.9-.3-5.4-1.2-10.6-2.1-12.4-.9-1.8-1.5-3.3-1.4-3.4.2-.1 4.8-2.6 10.3-5.5 17.6-9.3 40.1-23.4 52.4-32.7 2.4-1.8 4.6-3.3 4.8-3.3.2 0 1.6 2.5 3 5.6zm-190 30.6c9 9 16.3 16.9 16.3 17.6 0 5.3-13.8 23.9-21.7 29.3-10.4 7.2-37.6 16.4-54.7 18.4l-5.9.8.8-5.9c2-17.1 11.2-44.3 18.4-54.7 5.4-7.9 23.8-21.6 29.1-21.7.8 0 8.8 7.3 17.7 16.2z"/><path d="M353.3 102.1c-9.5 1.2-20.2 6.6-27.7 14.1-10.1 10.1-14.6 21.1-14.6 35.4 0 27.8 21.6 49.4 49.4 49.4 14.3 0 25.3-4.5 35.3-14.5 19.2-19.2 19.6-49.8.8-69.5-11.1-11.6-26.7-17-43.2-14.9zm19.3 21.9c23 9.8 23.8 42.7 1.2 53.9-5.1 2.6-7.3 3.1-13.3 3.1-17 0-29.5-12.5-29.5-29.6 0-5.9.5-8.1 3.1-13.2 7.1-14.3 23.8-20.5 38.5-14.2zm-73.1 75.2c-3.1 1.7-16.5 15-18.1 18-4.8 9.2 4.2 18.2 13.4 13.4 3.2-1.7 16.5-15.1 18.1-18.3 4.2-8.3-5.3-17.6-13.4-13.1zm-40.2 41.6c-6.9 1.1-9.8 11-4.6 16.4 5.1 5.4 15.1 2.6 16.5-4.5.6-2.9-.8-8.2-2.6-9.6-1.9-1.6-6.6-2.8-9.3-2.3zm-188.5 45C54.4 302.1 54 302.7 54 306.7c0 6.3 3.4 9.8 9.4 9.8H68L84.5 300c17.8-17.8 19.1-19.9 16.1-25.8-2-3.9-4.4-5.2-9.3-5.2-3.5 0-4.7 1-20.5 16.8zm4.6 53.9c-1.1.2-18.5 16.9-38.7 37.1C6.1 407.4 0 414 0 416.3c0 8.1 7.8 13 14.8 9.3 1.5-.8 18.3-17.1 37.4-36.3 37.2-37.4 37.6-37.9 34.3-44.3-1.3-2.5-7.3-6.5-8.7-5.9-.2.1-1.2.4-2.4.6zM229.5 411c-1.1.4-9.4 8.3-18.4 17.4l-16.4 16.5.6 4.3c.8 5.7 4.3 8.8 10 8.8 4 0 4.6-.4 20.9-16.8 15.8-15.8 16.8-17 16.8-20.5 0-4.9-1.3-7.3-5-9.2-3.2-1.7-5.5-1.8-8.5-.5zM79 425.1c-3 1.2-70.5 68.3-72.6 72.1-3.7 7.1 1.1 14.8 9.4 14.8 2.1 0 9.4-6.8 39.3-36.6 24.8-24.8 36.9-37.5 37.2-39.3.7-3.8-1.7-8.7-5.2-10.5-3.4-1.8-4.6-1.9-8.1-.5zm80 0c-3 1.2-70.5 68.3-72.6 72.1-3.7 7.1 1.1 14.8 9.4 14.8 2.1 0 9.4-6.8 39.3-36.6 24.8-24.8 36.9-37.5 37.2-39.3.7-3.8-1.7-8.7-5.2-10.5-3.4-1.8-4.6-1.9-8.1-.5z"/></svg>